<svg width="30" height="30" viewBox="0 0 30 30" fill="none" xmlns="http://www.w3.org/2000/svg">
<path d="M18.75 15.625H15.625V18.75C15.625 18.9158 15.5592 19.0747 15.4419 19.1919C15.3247 19.3092 15.1658 19.375 15 19.375C14.8342 19.375 14.6753 19.3092 14.5581 19.1919C14.4408 19.0747 14.375 18.9158 14.375 18.75V15.625H11.25C11.0842 15.625 10.9253 15.5592 10.8081 15.4419C10.6908 15.3247 10.625 15.1658 10.625 15C10.625 14.8342 10.6908 14.6753 10.8081 14.5581C10.9253 14.4408 11.0842 14.375 11.25 14.375H14.375V11.25C14.375 11.0842 14.4408 10.9253 14.5581 10.8081C14.6753 10.6908 14.8342 10.625 15 10.625C15.1658 10.625 15.3247 10.6908 15.4419 10.8081C15.5592 10.9253 15.625 11.0842 15.625 11.25V14.375H18.75C18.9158 14.375 19.0747 14.4408 19.1919 14.5581C19.3092 14.6753 19.375 14.8342 19.375 15C19.375 15.1658 19.3092 15.3247 19.1919 15.4419C19.0747 15.5592 18.9158 15.625 18.75 15.625Z" fill="#333333"/>
<path d="M15 27.415C12.5438 27.4155 10.1427 26.6876 8.10023 25.3233C6.0578 23.959 4.46583 22.0197 3.52567 19.7506C2.5855 17.4815 2.33939 14.9846 2.81844 12.5756C3.29749 10.1666 4.48019 7.95376 6.21696 6.21699C7.95373 4.48022 10.1665 3.29752 12.5755 2.81847C14.9845 2.33942 17.4815 2.58554 19.7506 3.5257C22.0197 4.46586 23.959 6.05783 25.3233 8.10026C26.6875 10.1427 27.4155 12.5438 27.415 15C27.411 18.2914 26.1017 21.4469 23.7743 23.7743C21.4469 26.1017 18.2914 27.411 15 27.415ZM15 3.83124C12.7912 3.83075 10.6319 4.48526 8.79508 5.712C6.95829 6.93875 5.52654 8.68263 4.68087 10.7231C3.83521 12.7636 3.61363 15.009 4.04415 17.1754C4.47466 19.3418 5.53794 21.3319 7.09952 22.894C8.6611 24.4561 10.6508 25.5201 12.8171 25.9513C14.9834 26.3826 17.2289 26.1617 19.2696 25.3168C21.3104 24.4718 23.0548 23.0406 24.2821 21.2042C25.5095 19.3679 26.1647 17.2088 26.165 15C26.162 12.0394 24.9848 9.2009 22.8917 7.10711C20.7987 5.01331 17.9605 3.83521 15 3.83124Z" fill="#333333"/>
</svg>
