<svg width="20" height="20" viewBox="0 0 16 16" fill="none" xmlns="http://www.w3.org/2000/svg">
<path d="M8.00008 11.3333C7.64646 11.3333 7.30732 11.1928 7.05727 10.9428C6.80722 10.6927 6.66675 10.3536 6.66675 9.99996C6.66675 9.25996 7.26008 8.66663 8.00008 8.66663C8.3537 8.66663 8.69284 8.8071 8.94289 9.05715C9.19294 9.3072 9.33342 9.64634 9.33342 9.99996C9.33342 10.3536 9.19294 10.6927 8.94289 10.9428C8.69284 11.1928 8.3537 11.3333 8.00008 11.3333ZM12.0001 13.3333V6.66663H4.00008V13.3333H12.0001ZM12.0001 5.33329C12.3537 5.33329 12.6928 5.47377 12.9429 5.72382C13.1929 5.97387 13.3334 6.313 13.3334 6.66663V13.3333C13.3334 13.6869 13.1929 14.0261 12.9429 14.2761C12.6928 14.5262 12.3537 14.6666 12.0001 14.6666H4.00008C3.64646 14.6666 3.30732 14.5262 3.05727 14.2761C2.80722 14.0261 2.66675 13.6869 2.66675 13.3333V6.66663C2.66675 5.92663 3.26008 5.33329 4.00008 5.33329H4.66675V3.99996C4.66675 3.1159 5.01794 2.26806 5.64306 1.64294C6.26818 1.01782 7.11603 0.666626 8.00008 0.666626C8.43782 0.666626 8.87127 0.752845 9.27569 0.920361C9.68011 1.08788 10.0476 1.33341 10.3571 1.64294C10.6666 1.95247 10.9122 2.31993 11.0797 2.72435C11.2472 3.12877 11.3334 3.56222 11.3334 3.99996V5.33329H12.0001ZM8.00008 1.99996C7.46965 1.99996 6.96094 2.21067 6.58587 2.58575C6.21079 2.96082 6.00008 3.46953 6.00008 3.99996V5.33329H10.0001V3.99996C10.0001 3.46953 9.78937 2.96082 9.4143 2.58575C9.03922 2.21067 8.53051 1.99996 8.00008 1.99996Z" fill="#0d6efd"/>
</svg>
