<svg width="20" height="20" viewBox="0 0 20 20" fill="none" xmlns="http://www.w3.org/2000/svg">
<path d="M18.3891 7.69752C18.3337 7.52147 18.2269 7.36604 18.0824 7.2513C17.9378 7.13655 17.7622 7.06775 17.5782 7.05377L12.9336 6.65221C12.8772 6.64695 12.8232 6.62644 12.7775 6.59286C12.7318 6.55928 12.6961 6.5139 12.6743 6.46158L10.8594 2.13736C10.7885 1.96726 10.6689 1.82195 10.5155 1.71974C10.3622 1.61753 10.182 1.56299 9.99771 1.56299C9.81342 1.56299 9.63325 1.61753 9.47991 1.71974C9.32656 1.82195 9.2069 1.96726 9.13599 2.13736L7.32349 6.46158C7.30162 6.5139 7.26592 6.55928 7.22023 6.59286C7.17454 6.62644 7.12057 6.64695 7.06411 6.65221L2.42193 7.05377C2.23754 7.06889 2.06174 7.13822 1.91668 7.25305C1.77162 7.36787 1.66377 7.52305 1.60672 7.69905C1.54967 7.87504 1.54597 8.06398 1.59608 8.24207C1.64619 8.42016 1.74788 8.57944 1.88833 8.69986L5.41177 11.7741C5.45577 11.8118 5.48842 11.861 5.50608 11.9162C5.52374 11.9713 5.52571 12.0303 5.51177 12.0866L4.45318 16.6577C4.40955 16.838 4.42099 17.0273 4.48603 17.2011C4.55106 17.3749 4.6667 17.5253 4.81802 17.6327C4.96592 17.7419 5.14319 17.8042 5.3269 17.8116C5.5106 17.819 5.6923 17.7711 5.84849 17.6741L9.84068 15.2522C9.8886 15.2227 9.94377 15.2071 10.0001 15.2071C10.0563 15.2071 10.1115 15.2227 10.1594 15.2522L14.1516 17.6741C14.3094 17.7687 14.4916 17.8147 14.6754 17.8065C14.8592 17.7983 15.0366 17.7362 15.1853 17.6279C15.3341 17.5197 15.4477 17.37 15.512 17.1976C15.5763 17.0252 15.5884 16.8377 15.5469 16.6585L14.4907 12.085C14.4767 12.0288 14.4787 11.9698 14.4964 11.9146C14.514 11.8594 14.5467 11.8102 14.5907 11.7725L18.1141 8.6983C18.2543 8.5778 18.3554 8.41819 18.4044 8.2399C18.4534 8.06161 18.4481 7.87276 18.3891 7.69752ZM17.7032 8.22877L14.1797 11.303C14.0507 11.4149 13.9548 11.5599 13.9022 11.7224C13.8496 11.8848 13.8424 12.0586 13.8813 12.2249L14.9376 16.7967C14.9523 16.8573 14.9486 16.921 14.9269 16.9795C14.9051 17.0379 14.8664 17.0886 14.8157 17.1249C14.7669 17.161 14.7084 17.1816 14.6478 17.184C14.5872 17.1864 14.5272 17.1704 14.4758 17.1381L10.4836 14.7163C10.338 14.6274 10.1707 14.5803 10.0001 14.5803C9.82942 14.5803 9.66209 14.6274 9.51646 14.7163L5.52427 17.1381C5.47286 17.1704 5.41293 17.1864 5.3523 17.184C5.29167 17.1816 5.23316 17.161 5.18443 17.1249C5.13368 17.0886 5.09496 17.0379 5.07324 16.9795C5.05152 16.921 5.0478 16.8573 5.06255 16.7967L6.1188 12.2233C6.15773 12.057 6.15051 11.8833 6.09792 11.7208C6.04532 11.5584 5.94935 11.4133 5.82036 11.3014L2.29693 8.22877C2.24949 8.18807 2.21535 8.13408 2.19892 8.07378C2.18249 8.01347 2.18451 7.94963 2.20474 7.89049C2.2236 7.83231 2.25911 7.78094 2.30688 7.74275C2.35465 7.70456 2.41258 7.68123 2.47349 7.67564L7.11802 7.27408C7.28787 7.25894 7.45037 7.19776 7.58803 7.09713C7.72569 6.9965 7.8333 6.86023 7.89927 6.70299L9.71333 2.37799C9.73778 2.32254 9.77783 2.27539 9.8286 2.24229C9.87937 2.20919 9.93866 2.19157 9.99927 2.19157C10.0599 2.19157 10.1192 2.20919 10.1699 2.24229C10.2207 2.27539 10.2608 2.32254 10.2852 2.37799L12.0993 6.70299C12.1652 6.86023 12.2728 6.9965 12.4105 7.09713C12.5482 7.19776 12.7107 7.25894 12.8805 7.27408L17.5251 7.67564C17.586 7.68123 17.6439 7.70456 17.6917 7.74275C17.7394 7.78094 17.7749 7.83231 17.7938 7.89049C17.8142 7.94948 17.8165 8.01322 17.8003 8.07352C17.7842 8.13381 17.7503 8.18788 17.7032 8.22877Z" fill="black"/>
</svg>
